<?xml version="1.0" encoding="utf-8"?>
<!-- Generator: Adobe Illustrator 25.2.1, SVG Export Plug-In . SVG Version: 6.00 Build 0)  -->
<svg version="1.1" id="Camada_1" xmlns="http://www.w3.org/2000/svg" xmlns:xlink="http://www.w3.org/1999/xlink" x="0px" y="0px"
	 viewBox="0 0 595.3 841.9" style="enable-background:new 0 0 595.3 841.9;" xml:space="preserve">
<style type="text/css">
	.st0{fill:#FFFFFF;}
	.st1{fill:#020203;}
	.st2{fill:#030304;}
	.st3{fill:#030405;}
	.st4{fill:#050607;}
	.st5{fill:#030404;}
	.st6{fill:#060708;}
	.st7{fill:#040506;}
	.st8{fill:#FEFEFE;}
	.st9{fill:#EEEEEE;}
	.st10{fill:#F1F1F1;}
</style>
<g>
	<g>
		<path class="st0" d="M227.1,420.9c-8,0-8,0-8-8c0-27.6,0-55.2-0.1-82.9c0-2.5,0.6-3.1,3.1-3.1c46.3,0.1,92.6,0.1,138.8,0
			c2.5,0,3.1,0.6,3.1,3.1c-0.1,29.1-0.1,58.2,0,87.4c0,3-0.6,3.6-3.6,3.6c-43.4-0.1-86.9-0.1-130.3-0.1c7.7-5.7,8.2-14.6,10-22.7
			c1.7-7.9,6.2-14.2,10.9-20.5c8.8-11.9,18.2-23.4,24.7-36.8c1.2-2.4,2.3-4.8,1.8-7.6c-0.2-1.3-0.6-2.7-2.1-3.1
			c-1.5-0.4-2.5,0.6-3.3,1.7c-0.7,0.9-1.2,2-1.4,3.2c-3.2,14.3-12.2,25.7-19.6,37.8c-0.9,1.5-2.4,3.3-4.4,2.4
			c-2.2-1-1.7-3.4-1.6-5.3c0.7-8.7,2.7-17.4,0.5-26.2c-1-4.3-2.1-8.4-6.5-10.7c-3.8-1.9-7.3-1.9-10.5,1.2c-3.8,3.7-6,8.2-6.9,13.9
			c2.7-0.3,3.5-2.4,4.8-3.6c4.8-4.2,9.1-3.3,12,2.4c3.9,7.7,4.3,15.9,3.9,24.3c-0.4,9.3-3.2,17.3-9.4,24.5
			C226.7,402.7,225.5,411.6,227.1,420.9z"/>
		<path class="st1" d="M227.1,420.9c-4.3-5.4-1.6-11-0.4-16.5c0.9-4.1,3.1-7.7,5.9-10.7c6.3-6.6,8.1-14.8,8.4-23.5
			c0.3-7.8,0.2-15.4-3.7-22.7c-3.3-6-5.6-6.5-10.7-1.7c-1.5,1.4-2.1,3.7-4.3,4.5c-0.6,0.2-1.1,0.5-1.8,0.7
			c-1.1-7.6,3.4-16.9,9.7-20.3c4.2-2.2,12.3,0.6,14.4,5.5c2.6,6.3,3.7,12.9,2.9,19.8c-0.7,6.2-1,12.4-1.6,19.7c5-3.4,6.7-8,9.2-11.8
			c4-6,7.2-12.5,10.7-18.9c1.7-3,2.9-6.2,3.2-9.7c0.1-1.1,0.5-2.3,0.9-3.3c1.2-2.6,3.1-4.6,6.1-4c2.8,0.6,3,3.2,2.9,5.6
			c-0.4,6.9-4.7,12.1-7.9,17.8c-6.9,12.2-16.3,22.6-24.2,34.1c-4.9,7.1-5.7,15.2-7.8,23.1c-0.2,0.6-0.1,1.3-0.3,2
			c-1.5,4.6-3,9.2-8.8,10.2C229.1,420.9,228.1,420.9,227.1,420.9z"/>
		<path class="st2" d="M256,407.6c0-8.7,0-8.7,8.8-8.7c1.5,0,3,0,4.5,0c6.2,0.1,10.3,2.7,10.4,6.5c0.3,7.9-2.2,10.9-10,11.4
			c-3.3,0.2-6.7-0.2-9.9,0.1c-3.2,0.3-4.1-0.9-3.7-3.9C256.2,411.3,256,409.4,256,407.6z"/>
		<path class="st3" d="M270.8,389.9c-3.2,0.5-6.2-0.4-8.9-1.9c-5.4-2.9-6.4-9.1-2.3-13.2c4.1-4.2,17.1-4.9,21.8-1.2
			c0.7,0.6,1.9,1,1.5,2.2c-0.3,1-1.4,0.7-2.2,0.9c-2.3,0.4-4.4,0.6-6.6-0.8c-3.2-2-6.3-0.9-8.3,2c-1.5,2.2-1.3,4.9,0.9,6.7
			c2.9,2.3,6.2,1.5,9.5,0.8c0.3-0.1,0.8-0.8,0.7-1.1c-0.3-0.9-1.1-1.2-2-1.2c-1.5,0.1-3.1,0.6-2.9-1.9c0.2-2.3,1.9-1.3,3-1.5
			c1.3-0.2,2.8-0.7,3.9-0.3c1.7,0.7,4.7-1.2,5.1,2.1c0.3,2.8,0.9,5.8-3.4,6.9C277.3,389.2,274.2,390.2,270.8,389.9z"/>
		<path class="st4" d="M309.2,383.5c-1-5.5-0.1-6.6,5.4-7.2c6-0.6,11.9,2.9,17.8-0.2c2.2-1.2,5.8-0.2,7.1,2.2
			c1.6,2.9,0.8,6.6,0.2,9.8c-0.3,1.8-2.9,0.6-4.4,0.8c-1.5,0.2-2-0.6-2-2.1c0-1.6,0-3.3-0.1-4.9c0-1.6-1.1-2.6-2.5-2.5
			c-1.4,0-3,0.3-2.9,2.5c0,0.8-0.3,1.6-0.3,2.4c-0.1,2.2,1.1,4.7-3.2,4.8c-4.2,0.1-3.6-2.1-3.5-4.6c0-0.3,0.1-0.7,0-1
			c-0.4-1.9-0.6-4.1-3.3-4.1c-2.9,0.1-2.8,2.3-2.6,4.3c0.3,3.3-0.1,6.3-4.5,5.1C307,387.9,310.2,384.5,309.2,383.5z"/>
		<path class="st5" d="M282.7,407.1c-0.9-5.8,3.2-7.1,7.4-8.4c5.2-1.7,10.1-0.8,14.7,1.7c0.7,0.4,2.2,1.3,1.6,2.7
			c-0.5,1.1-1.7,0.8-2.6,0.9c-2,0.2-3.8-0.4-5.6-1.3c-2.8-1.4-5.8-1.3-7.5,1.6c-1.3,2.3-1.5,5.2,0.6,7.4c2.4,2.3,5.2,1.6,7.8,0.2
			c0.4-0.2,0.6-0.8,0.9-1.1c1.7-1.7,3.7-0.6,5.6-0.4c0.7,0.1,1.6,0.8,1.2,1.8c-0.7,1.6-2,2.6-3.6,3.3c-5.4,2.3-10.9,1.9-16.2-0.2
			C283.5,413.6,281.8,411,282.7,407.1z"/>
		<path class="st6" d="M343.1,379.6c3.6-3.9,13.7-5.1,17.8-2.2c1.7,1.2,3.2,10,1.7,11.1c-0.9,0.6-2.7,0.8-3.7,0.4
			c-3-1.2-5.7-0.5-8.4,0.6c-1.5,0.6-2.9-0.1-4.3-0.3c-2.1-0.3-3.8-1.3-3.8-3.2c0-2.2,1.9-3.1,4.2-3.2c2.1-0.1,4.3-0.5,6.4-0.8
			c1-0.2,2.1-0.6,1.9-1.9c-0.3-1.7-1.7-1.3-2.7-0.8C349.1,380.7,346.1,380.9,343.1,379.6z"/>
		<path class="st7" d="M296.3,382.9c-0.2-1.8,3.7-0.9,2.3-3.1c-1-1.6-3-0.7-4.6-0.6c-0.2,0-0.3,0.1-0.5,0.2c-2.1,0.9-5.8,1.7-6.1,0
			c-0.5-3.1,3.4-2.6,5.6-3.3c1.2-0.4,2.6-0.1,4-0.1c7.4,0,10.5,4.7,8,11.8c-0.7,2-2.4,1.5-3.2,1.1c-2.7-1.2-5-0.6-7.5,0.5
			c-1.4,0.7-2.9,0.7-4.4,0.2c-1.9-0.7-4.7-0.6-4.1-3.8c0.5-2.5,2.4-2.8,4.5-2.8c2,0,4-0.1,6-0.1c0.5,0.9-1.1,1.5-0.4,2.5
			C297.5,384.5,296.7,383.7,296.3,382.9z"/>
		<path class="st8" d="M263.9,408.2c0.3-2.7-1.2-5.7,3.2-5.3c3.3,0.3,5,1.2,4.9,4.9c0,4.1-2.1,5-5.5,5.2
			C261.7,413.1,265.4,409.1,263.9,408.2z"/>
		<path class="st9" d="M356,384.4c-0.3,2.2-2.4,1.9-3.8,2.4c-1,0.4-2.5,0.2-2.3-1.6c0.3-2.5,2.8-0.8,4-2
			C354.7,382.4,355.7,383.1,356,384.4z"/>
		<path class="st10" d="M296.3,382.9c1,0.4,2.9-0.5,2.7,1.8c-0.2,2-1.8,2.1-3.2,2.2c-1,0.1-2.4,0.7-2.8-1.1
			c-0.5-2.1,1.2-1.8,2.4-2.1c0.4-0.1,0.7-0.6,1.1-0.9C296.5,382.7,296.3,382.9,296.3,382.9z"/>
	</g>
</g>
</svg>
